<svg width="94" height="72" viewBox="0 0 94 72" fill="none" xmlns="http://www.w3.org/2000/svg">
    <path id="right-triangle"
          d="M39.1208 44.417C32.9868 40.482 32.9868 31.518 39.1208 27.583L78.1005 2.57751C84.7561 -1.69205 93.5 3.08716 93.5 10.9945V61.0055C93.5 68.9128 84.7561 73.692 78.1005 69.4225L39.1208 44.417Z"
          fill="url(#paint0)"/>
    <path id="left-triangle"
          d="M54.8792 27.583C61.0132 31.518 61.0132 40.482 54.8792 44.417L15.8995 69.4225C9.24391 73.692 0.5 68.9128 0.5 61.0055V10.9945C0.5 3.08715 9.24391 -1.69205 15.8995 2.57751L54.8792 27.583Z"
          fill="url(#paint1)"/>
    <path id="letter-V"
          d="M83.522 25.34C84.702 25.92 85.292 26.56 85.292 27.26C85.292 27.58 85.142 28.06 84.842 28.7L76.562 45.5C76.342 45.94 76.002 46.3 75.542 46.58C75.102 46.84 74.642 46.97 74.162 46.97H73.862C73.362 46.97 72.882 46.84 72.422 46.58C71.982 46.3 71.652 45.94 71.432 45.5L63.152 28.7C62.852 28.06 62.702 27.58 62.702 27.26C62.702 26.56 63.292 25.92 64.472 25.34C65.132 25 65.632 24.83 65.972 24.83C66.332 24.83 66.602 24.87 66.782 24.95C66.962 25.03 67.132 25.17 67.292 25.37C67.472 25.61 67.632 25.88 67.772 26.18C67.932 26.46 68.322 27.29 68.942 28.67C69.562 30.03 70.222 31.48 70.922 33.02C71.642 34.56 72.312 36.02 72.932 37.4C73.572 38.76 73.932 39.52 74.012 39.68L80.012 26.54C80.172 26.16 80.312 25.86 80.432 25.64C80.792 25.1 81.232 24.83 81.752 24.83C82.272 24.83 82.862 25 83.522 25.34Z"
          fill="white"/>
    <path id="letter-C"
          d="M24.7593 41.24L25.2993 40.85C25.9793 40.45 26.4593 40.25 26.7393 40.25C27.3593 40.25 28.0293 40.81 28.7493 41.93C29.1893 42.63 29.4093 43.19 29.4093 43.61C29.4093 44.03 29.2693 44.38 28.9893 44.66C28.7293 44.94 28.4193 45.19 28.0593 45.41C27.6993 45.63 27.3493 45.84 27.0093 46.04C26.6893 46.24 26.0193 46.5 24.9993 46.82C23.9793 47.14 22.9893 47.3 22.0293 47.3C21.0893 47.3 20.1293 47.18 19.1493 46.94C18.1893 46.68 17.1893 46.26 16.1493 45.68C15.1293 45.08 14.2093 44.36 13.3893 43.52C12.5693 42.66 11.8893 41.57 11.3493 40.25C10.8293 38.91 10.5693 37.46 10.5693 35.9C10.5693 34.34 10.8293 32.93 11.3493 31.67C11.8693 30.39 12.5293 29.34 13.3293 28.52C14.1493 27.68 15.0793 26.98 16.1193 26.42C18.0793 25.34 20.0493 24.8 22.0293 24.8C22.9693 24.8 23.9193 24.95 24.8793 25.25C25.8593 25.53 26.5993 25.82 27.0993 26.12L27.8193 26.54C28.1793 26.76 28.4593 26.94 28.6593 27.08C29.1793 27.5 29.4393 27.98 29.4393 28.52C29.4393 29.04 29.2293 29.59 28.8093 30.17C28.0293 31.25 27.3293 31.79 26.7093 31.79C26.3493 31.79 25.8393 31.57 25.1793 31.13C24.3393 30.45 23.2193 30.11 21.8193 30.11C20.5193 30.11 19.2393 30.56 17.9793 31.46C17.3793 31.9 16.8793 32.52 16.4793 33.32C16.0793 34.12 15.8793 35.03 15.8793 36.05C15.8793 37.05 16.0793 37.95 16.4793 38.75C16.8793 39.55 17.3893 40.18 18.0093 40.64C19.2293 41.52 20.4993 41.96 21.8193 41.96C22.4393 41.96 23.0193 41.88 23.5593 41.72C24.1193 41.56 24.5193 41.4 24.7593 41.24Z"
          fill="white"/>
    <defs>
        <linearGradient id="paint0" x1="26" y1="36" x2="116" y2="36" gradientUnits="userSpaceOnUse">
            <stop offset="0.0416667" stop-color="#0070C0" stop-opacity="0"/>
            <stop offset="0.760417" stop-color="#0070C0"/>
        </linearGradient>
        <linearGradient id="paint1" x1="68" y1="36" x2="-22" y2="36" gradientUnits="userSpaceOnUse">
            <stop stop-color="#FF0000" stop-opacity="0"/>
            <stop offset="0.75" stop-color="#FF0000"/>
        </linearGradient>
    </defs>
</svg>
