<svg width="94" height="89" viewBox="0 0 94 89" fill="none" xmlns="http://www.w3.org/2000/svg">
    <path id="right-triangle"
          d="M39.1208 44.417C32.9868 40.482 32.9868 31.518 39.1208 27.583L78.1005 2.57751C84.7561 -1.69205 93.5 3.08716 93.5 10.9945V61.0055C93.5 68.9128 84.7561 73.692 78.1005 69.4225L39.1208 44.417Z"
          fill="url(#paint0)"/>
    <path id="left-triangle"
          d="M54.8792 27.583C61.0132 31.518 61.0132 40.482 54.8792 44.417L15.8995 69.4225C9.24391 73.692 0.5 68.9128 0.5 61.0055V10.9945C0.5 3.08715 9.24391 -1.69205 15.8995 2.57751L54.8792 27.583Z"
          fill="url(#paint1)"/>
    <path id="text-SIMULATOR"
          d="M6.07967 88.119C5.29767 88.119 4.59501 87.983 3.97167 87.711C3.35967 87.4277 2.87801 87.0423 2.52667 86.555C2.17534 86.0563 1.99401 85.484 1.98267 84.838H3.63167C3.68834 85.3933 3.91501 85.8637 4.31167 86.249C4.71967 86.623 5.30901 86.81 6.07967 86.81C6.81634 86.81 7.39434 86.6287 7.81367 86.266C8.24434 85.892 8.45967 85.416 8.45967 84.838C8.45967 84.3847 8.33501 84.0163 8.08567 83.733C7.83634 83.4497 7.52467 83.2343 7.15067 83.087C6.77667 82.9397 6.27234 82.781 5.63767 82.611C4.85567 82.407 4.22667 82.203 3.75067 81.999C3.28601 81.795 2.88367 81.4777 2.54367 81.047C2.21501 80.605 2.05067 80.0157 2.05067 79.279C2.05067 78.633 2.21501 78.0607 2.54367 77.562C2.87234 77.0633 3.33134 76.678 3.92067 76.406C4.52134 76.134 5.20701 75.998 5.97767 75.998C7.08834 75.998 7.99501 76.2757 8.69767 76.831C9.41167 77.3863 9.81401 78.123 9.90467 79.041H8.20467C8.14801 78.5877 7.91001 78.191 7.49067 77.851C7.07134 77.4997 6.51601 77.324 5.82467 77.324C5.17867 77.324 4.65167 77.494 4.24367 77.834C3.83567 78.1627 3.63167 78.6273 3.63167 79.228C3.63167 79.6587 3.75067 80.01 3.98867 80.282C4.23801 80.554 4.53834 80.7637 4.88967 80.911C5.25234 81.047 5.75667 81.2057 6.40267 81.387C7.18467 81.6023 7.81367 81.8177 8.28967 82.033C8.76567 82.237 9.17367 82.56 9.51367 83.002C9.85367 83.4327 10.0237 84.022 10.0237 84.77C10.0237 85.348 9.87067 85.892 9.56467 86.402C9.25867 86.912 8.80534 87.3257 8.20467 87.643C7.60401 87.9603 6.89567 88.119 6.07967 88.119ZM13.8472 76.151V88H12.3002V76.151H13.8472ZM28.5028 76.236V88H26.9558V79.228L23.0458 88H21.9578L18.0308 79.211V88H16.4838V76.236H18.1498L22.5018 85.96L26.8538 76.236H28.5028ZM32.6394 76.151V83.648C32.6394 84.702 32.8944 85.484 33.4044 85.994C33.9257 86.504 34.6454 86.759 35.5634 86.759C36.47 86.759 37.1784 86.504 37.6884 85.994C38.2097 85.484 38.4704 84.702 38.4704 83.648V76.151H40.0174V83.631C40.0174 84.617 39.819 85.45 39.4224 86.13C39.0257 86.7987 38.4874 87.2973 37.8074 87.626C37.1387 87.9547 36.385 88.119 35.5464 88.119C34.7077 88.119 33.9484 87.9547 33.2684 87.626C32.5997 87.2973 32.067 86.7987 31.6704 86.13C31.285 85.45 31.0924 84.617 31.0924 83.631V76.151H32.6394ZM44.1451 86.742H48.2931V88H42.5981V76.151H44.1451V86.742ZM56.94 85.365H51.772L50.82 88H49.188L53.472 76.219H55.257L59.524 88H57.892L56.94 85.365ZM56.498 84.107L54.356 78.123L52.214 84.107H56.498ZM68.684 76.151V77.409H65.454V88H63.907V77.409H60.66V76.151H68.684ZM75.9603 88.119C74.861 88.119 73.858 87.864 72.9513 87.354C72.0446 86.8327 71.325 86.113 70.7923 85.195C70.271 84.2657 70.0103 83.223 70.0103 82.067C70.0103 80.911 70.271 79.874 70.7923 78.956C71.325 78.0267 72.0446 77.307 72.9513 76.797C73.858 76.2757 74.861 76.015 75.9603 76.015C77.071 76.015 78.0796 76.2757 78.9863 76.797C79.893 77.307 80.607 78.021 81.1283 78.939C81.6496 79.857 81.9103 80.8997 81.9103 82.067C81.9103 83.2343 81.6496 84.277 81.1283 85.195C80.607 86.113 79.893 86.8327 78.9863 87.354C78.0796 87.864 77.071 88.119 75.9603 88.119ZM75.9603 86.776C76.7876 86.776 77.53 86.5833 78.1873 86.198C78.856 85.8127 79.3773 85.263 79.7513 84.549C80.1366 83.835 80.3293 83.0077 80.3293 82.067C80.3293 81.115 80.1366 80.2877 79.7513 79.585C79.3773 78.871 78.8616 78.3213 78.2043 77.936C77.547 77.5507 76.799 77.358 75.9603 77.358C75.1216 77.358 74.3736 77.5507 73.7163 77.936C73.059 78.3213 72.5376 78.871 72.1523 79.585C71.7783 80.2877 71.5913 81.115 71.5913 82.067C71.5913 83.0077 71.7783 83.835 72.1523 84.549C72.5376 85.263 73.059 85.8127 73.7163 86.198C74.385 86.5833 75.133 86.776 75.9603 86.776ZM90.1916 88L87.3696 83.155H85.4996V88H83.9526V76.151H87.7776C88.6729 76.151 89.4266 76.304 90.0386 76.61C90.6619 76.916 91.1266 77.3297 91.4326 77.851C91.7386 78.3723 91.8916 78.9673 91.8916 79.636C91.8916 80.452 91.6536 81.1717 91.1776 81.795C90.7129 82.4183 90.0102 82.832 89.0696 83.036L92.0446 88H90.1916ZM85.4996 81.914H87.7776C88.6162 81.914 89.2452 81.71 89.6646 81.302C90.0839 80.8827 90.2936 80.3273 90.2936 79.636C90.2936 78.9333 90.0839 78.3893 89.6646 78.004C89.2566 77.6187 88.6276 77.426 87.7776 77.426H85.4996V81.914Z"
          fill="black"/>
    <path id="letter-V"
          d="M83.522 25.34C84.702 25.92 85.292 26.56 85.292 27.26C85.292 27.58 85.142 28.06 84.842 28.7L76.562 45.5C76.342 45.94 76.002 46.3 75.542 46.58C75.102 46.84 74.642 46.97 74.162 46.97H73.862C73.362 46.97 72.882 46.84 72.422 46.58C71.982 46.3 71.652 45.94 71.432 45.5L63.152 28.7C62.852 28.06 62.702 27.58 62.702 27.26C62.702 26.56 63.292 25.92 64.472 25.34C65.132 25 65.632 24.83 65.972 24.83C66.332 24.83 66.602 24.87 66.782 24.95C66.962 25.03 67.132 25.17 67.292 25.37C67.472 25.61 67.632 25.88 67.772 26.18C67.932 26.46 68.322 27.29 68.942 28.67C69.562 30.03 70.222 31.48 70.922 33.02C71.642 34.56 72.312 36.02 72.932 37.4C73.572 38.76 73.932 39.52 74.012 39.68L80.012 26.54C80.172 26.16 80.312 25.86 80.432 25.64C80.792 25.1 81.232 24.83 81.752 24.83C82.272 24.83 82.862 25 83.522 25.34Z"
          fill="white"/>
    <path id="letter-C"
          d="M24.7593 41.24L25.2993 40.85C25.9793 40.45 26.4593 40.25 26.7393 40.25C27.3593 40.25 28.0293 40.81 28.7493 41.93C29.1893 42.63 29.4093 43.19 29.4093 43.61C29.4093 44.03 29.2693 44.38 28.9893 44.66C28.7293 44.94 28.4193 45.19 28.0593 45.41C27.6993 45.63 27.3493 45.84 27.0093 46.04C26.6893 46.24 26.0193 46.5 24.9993 46.82C23.9793 47.14 22.9893 47.3 22.0293 47.3C21.0893 47.3 20.1293 47.18 19.1493 46.94C18.1893 46.68 17.1893 46.26 16.1493 45.68C15.1293 45.08 14.2093 44.36 13.3893 43.52C12.5693 42.66 11.8893 41.57 11.3493 40.25C10.8293 38.91 10.5693 37.46 10.5693 35.9C10.5693 34.34 10.8293 32.93 11.3493 31.67C11.8693 30.39 12.5293 29.34 13.3293 28.52C14.1493 27.68 15.0793 26.98 16.1193 26.42C18.0793 25.34 20.0493 24.8 22.0293 24.8C22.9693 24.8 23.9193 24.95 24.8793 25.25C25.8593 25.53 26.5993 25.82 27.0993 26.12L27.8193 26.54C28.1793 26.76 28.4593 26.94 28.6593 27.08C29.1793 27.5 29.4393 27.98 29.4393 28.52C29.4393 29.04 29.2293 29.59 28.8093 30.17C28.0293 31.25 27.3293 31.79 26.7093 31.79C26.3493 31.79 25.8393 31.57 25.1793 31.13C24.3393 30.45 23.2193 30.11 21.8193 30.11C20.5193 30.11 19.2393 30.56 17.9793 31.46C17.3793 31.9 16.8793 32.52 16.4793 33.32C16.0793 34.12 15.8793 35.03 15.8793 36.05C15.8793 37.05 16.0793 37.95 16.4793 38.75C16.8793 39.55 17.3893 40.18 18.0093 40.64C19.2293 41.52 20.4993 41.96 21.8193 41.96C22.4393 41.96 23.0193 41.88 23.5593 41.72C24.1193 41.56 24.5193 41.4 24.7593 41.24Z"
          fill="white"/>
    <defs>
        <linearGradient id="paint0" x1="26" y1="36" x2="116" y2="36" gradientUnits="userSpaceOnUse">
            <stop offset="0.0416667" stop-color="#0070C0" stop-opacity="0"/>
            <stop offset="0.760417" stop-color="#0070C0"/>
        </linearGradient>
        <linearGradient id="paint1" x1="68" y1="36" x2="-22" y2="36" gradientUnits="userSpaceOnUse">
            <stop stop-color="#FF0000" stop-opacity="0"/>
            <stop offset="0.75" stop-color="#FF0000"/>
        </linearGradient>
    </defs>
</svg>
